<?xml version="1.0" encoding="UTF-8"?>
<svg version="1.1" xmlns="http://www.w3.org/2000/svg" width="512" height="512">
<path d="M0 0 C168.96 0 337.92 0 512 0 C512 168.96 512 337.92 512 512 C343.04 512 174.08 512 0 512 C0 343.04 0 174.08 0 0 Z " fill="#304366" transform="translate(0,0)"/>
<path d="M0 0 C0.495 1.485 0.495 1.485 1 3 C3.64 3.33 6.28 3.66 9 4 C8.835 4.5775 8.67 5.155 8.5 5.75 C7.85537969 8.26664369 7.85537969 8.26664369 8 12 C8.66 12 9.32 12 10 12 C10 12.66 10 13.32 10 14 C9.34 14 8.68 14 8 14 C7.731875 14.598125 7.46375 15.19625 7.1875 15.8125 C6.00082594 17.99847854 4.90400887 19.41332594 3 21 C2.34 21 1.68 21 1 21 C1.01571045 22.1960083 1.0314209 23.3920166 1.04760742 24.62426758 C1.10187061 29.05779293 1.1363369 33.49128888 1.16479492 37.92504883 C1.1798898 39.84469538 1.20036773 41.7643074 1.22631836 43.68383789 C1.26267109 46.44165564 1.27971912 49.1990178 1.29296875 51.95703125 C1.30845261 52.81649857 1.32393646 53.67596588 1.33988953 54.56147766 C1.34011612 55.36208115 1.34034271 56.16268463 1.34057617 56.98754883 C1.35056892 58.04344963 1.35056892 58.04344963 1.36076355 59.12068176 C0.88396349 61.60446665 -0.00577556 62.48475047 -2 64 C-5.09448242 64.34057617 -5.09448242 64.34057617 -8.85546875 64.29296875 C-9.51710526 64.28872391 -10.17874176 64.28447906 -10.86042786 64.28010559 C-12.9698691 64.26333693 -15.07834846 64.22569099 -17.1875 64.1875 C-18.61912681 64.17245068 -20.05076862 64.1587627 -21.48242188 64.14648438 C-24.98859288 64.1134403 -28.49420254 64.06167167 -32 64 C-31.505 68.455 -31.505 68.455 -31 73 C-28.69 73 -26.38 73 -24 73 C-24 74.65 -24 76.3 -24 78 C-26.48168614 79.24084307 -28.16426199 79.12933103 -30.9375 79.1328125 C-31.91460937 79.13410156 -32.89171875 79.13539063 -33.8984375 79.13671875 C-34.92195313 79.13285156 -35.94546875 79.12898438 -37 79.125 C-38.02351563 79.12886719 -39.04703125 79.13273437 -40.1015625 79.13671875 C-41.07867187 79.13542969 -42.05578125 79.13414062 -43.0625 79.1328125 C-43.96097656 79.13168457 -44.85945313 79.13055664 -45.78515625 79.12939453 C-48 79 -48 79 -50 78 C-50 76.68 -50 75.36 -50 74 C-46.81175432 72.40587716 -43.37103338 72.89825265 -39.875 72.9375 C-39.12089844 72.94201172 -38.36679688 72.94652344 -37.58984375 72.95117188 C-35.72652873 72.96296501 -33.86325445 72.98090058 -32 73 C-32.66 70.03 -33.32 67.06 -34 64 C-35.98 64 -37.96 64 -40 64 C-40.33 65.98 -40.66 67.96 -41 70 C-42.08174162 66.63458162 -41.92538169 65.70152678 -41 62 C-51.23 62 -61.46 62 -72 62 C-72 61.67 -72 61.34 -72 61 C-48.57 61 -25.14 61 -1 61 C-1.2165625 51.6259375 -1.2165625 51.6259375 -1.4375 42.0625 C-1.50215454 39.10035522 -1.50215454 39.10035522 -1.56811523 36.07836914 C-1.60622236 34.52228868 -1.64469013 32.966217 -1.68359375 31.41015625 C-1.7083075 30.18709778 -1.7083075 30.18709778 -1.73352051 28.93933105 C-1.47558282 25.16034895 -1.47558282 25.16034895 -3 22 C-3.33 34.21 -3.66 46.42 -4 59 C-25.78 59 -47.56 59 -70 59 C-70 45.14 -70 31.28 -70 17 C-50.2 17 -30.4 17 -10 17 C-10 16.34 -10 15.68 -10 15 C-30.79 15 -51.58 15 -73 15 C-73 30.18 -73 45.36 -73 61 C-73.33 61 -73.66 61 -74 61 C-74.0505916 54.34313186 -74.0856876 47.68631306 -74.10986328 41.02929688 C-74.11993859 38.76332751 -74.13359918 36.49737119 -74.15087891 34.23144531 C-74.17506011 30.97978499 -74.18646763 27.72829613 -74.1953125 24.4765625 C-74.20563507 23.45881744 -74.21595764 22.44107239 -74.22659302 21.39248657 C-74.22674408 20.45166229 -74.22689514 19.51083801 -74.22705078 18.54150391 C-74.231492 17.71099518 -74.23593323 16.88048645 -74.24050903 16.02481079 C-74 14 -74 14 -72 12 C-69.53981018 11.72825623 -69.53981018 11.72825623 -66.40454102 11.69702148 C-65.23315079 11.68037949 -64.06176056 11.66373749 -62.85487366 11.64659119 C-60.94864479 11.63396996 -60.94864479 11.63396996 -59.00390625 11.62109375 C-57.01849969 11.59513162 -55.03309318 11.5691648 -53.04769039 11.5429163 C-50.26096917 11.5084662 -47.47419304 11.48292333 -44.68737793 11.45739746 C-39.81483653 11.41177074 -34.94241499 11.35646494 -30.0700531 11.29469299 C-27.47478588 11.26269012 -24.87944957 11.23581446 -22.28407288 11.21446228 C-21.10953049 11.20097244 -19.9349881 11.1874826 -18.72485352 11.17358398 C-17.6894191 11.16407211 -16.65398468 11.15456024 -15.58717346 11.14476013 C-12.8834847 11.10712553 -12.8834847 11.10712553 -10 10 C-9.67 7.36 -9.34 4.72 -9 2 C-6.03 2.33 -3.06 2.66 0 3 C0 2.01 0 1.02 0 0 Z " fill="#5B4D6E" transform="translate(153,211)"/>
<path d="M0 0 C3.63 0 7.26 0 11 0 C13.53069408 2.53069408 14.68376954 3.98014063 16.1875 7.0625 C16.53167969 7.75472656 16.87585938 8.44695312 17.23046875 9.16015625 C18 11 18 11 18 13 C18.66 13 19.32 13 20 13 C20.67154933 14.28913487 21.33708859 15.58140204 22 16.875 C22.37125 17.59429687 22.7425 18.31359375 23.125 19.0546875 C24 21 24 21 24 23 C24.66 23 25.32 23 26 23 C26.31453125 23.60328125 26.6290625 24.2065625 26.953125 24.828125 C29.23718937 29.09354641 31.26111977 32.81502796 35 36 C35.23332031 35.17757812 35.46664062 34.35515625 35.70703125 33.5078125 C37.25889805 29.29761195 39.3672228 25.70019335 41.6875 21.875 C42.58619414 20.37254932 43.48462995 18.86994408 44.3828125 17.3671875 C44.8252832 16.63081055 45.26775391 15.89443359 45.72363281 15.13574219 C48.10088121 11.15789808 50.40537339 7.13798867 52.72265625 3.125 C54 1 54 1 55 0 C58.96 0 62.92 0 67 0 C67 19.8 67 39.6 67 60 C62.71 60 58.42 60 54 60 C54 48.78 54 37.56 54 26 C51.626208 28.373792 50.2830405 29.96494696 48.66015625 32.765625 C48.23669922 33.49136719 47.81324219 34.21710938 47.37695312 34.96484375 C46.94318359 35.71894531 46.50941406 36.47304688 46.0625 37.25 C45.41764648 38.35794922 45.41764648 38.35794922 44.75976562 39.48828125 C42.15010071 43.97896413 39.57238363 48.48788393 37 53 C34.36 53 31.72 53 29 53 C28.731875 52.50113281 28.46375 52.00226563 28.1875 51.48828125 C23.8062256 43.46074888 19.07334984 35.61002477 14 28 C13.67 38.56 13.34 49.12 13 60 C8.71 60 4.42 60 0 60 C0 40.2 0 20.4 0 0 Z " fill="#F5748A" transform="translate(211,220)"/>
<path d="M0 0 C0.495 1.485 0.495 1.485 1 3 C3.64 3.33 6.28 3.66 9 4 C8.835 4.5775 8.67 5.155 8.5 5.75 C7.85537969 8.26664369 7.85537969 8.26664369 8 12 C8.66 12 9.32 12 10 12 C10 12.66 10 13.32 10 14 C9.34 14 8.68 14 8 14 C7.731875 14.598125 7.46375 15.19625 7.1875 15.8125 C6.00082594 17.99847854 4.90400887 19.41332594 3 21 C2.34 21 1.68 21 1 21 C1.01571045 22.1960083 1.0314209 23.3920166 1.04760742 24.62426758 C1.10187061 29.05779293 1.1363369 33.49128888 1.16479492 37.92504883 C1.1798898 39.84469538 1.20036773 41.7643074 1.22631836 43.68383789 C1.26267109 46.44165564 1.27971912 49.1990178 1.29296875 51.95703125 C1.30845261 52.81649857 1.32393646 53.67596588 1.33988953 54.56147766 C1.34011612 55.36208115 1.34034271 56.16268463 1.34057617 56.98754883 C1.35056892 58.04344963 1.35056892 58.04344963 1.36076355 59.12068176 C0.88396349 61.60446665 -0.00577556 62.48475047 -2 64 C-5.09448242 64.34057617 -5.09448242 64.34057617 -8.85546875 64.29296875 C-9.51710526 64.28872391 -10.17874176 64.28447906 -10.86042786 64.28010559 C-12.9698691 64.26333693 -15.07834846 64.22569099 -17.1875 64.1875 C-18.61912681 64.17245068 -20.05076862 64.1587627 -21.48242188 64.14648438 C-24.98859288 64.1134403 -28.49420254 64.06167167 -32 64 C-31.505 68.455 -31.505 68.455 -31 73 C-28.69 73 -26.38 73 -24 73 C-24 74.65 -24 76.3 -24 78 C-26.48168614 79.24084307 -28.16426199 79.12933103 -30.9375 79.1328125 C-31.91460937 79.13410156 -32.89171875 79.13539063 -33.8984375 79.13671875 C-34.92195313 79.13285156 -35.94546875 79.12898438 -37 79.125 C-38.02351563 79.12886719 -39.04703125 79.13273437 -40.1015625 79.13671875 C-41.07867187 79.13542969 -42.05578125 79.13414062 -43.0625 79.1328125 C-43.96097656 79.13168457 -44.85945313 79.13055664 -45.78515625 79.12939453 C-48 79 -48 79 -50 78 C-50 76.68 -50 75.36 -50 74 C-46.81175432 72.40587716 -43.37103338 72.89825265 -39.875 72.9375 C-39.12089844 72.94201172 -38.36679688 72.94652344 -37.58984375 72.95117188 C-35.72652873 72.96296501 -33.86325445 72.98090058 -32 73 C-32.66 70.03 -33.32 67.06 -34 64 C-35.98 64 -37.96 64 -40 64 C-40.33 65.98 -40.66 67.96 -41 70 C-42.08174162 66.63458162 -41.92538169 65.70152678 -41 62 C-51.23 62 -61.46 62 -72 62 C-72 61.67 -72 61.34 -72 61 C-48.57 61 -25.14 61 -1 61 C-1.2165625 51.6259375 -1.2165625 51.6259375 -1.4375 42.0625 C-1.50215454 39.10035522 -1.50215454 39.10035522 -1.56811523 36.07836914 C-1.60622236 34.52228868 -1.64469013 32.966217 -1.68359375 31.41015625 C-1.7083075 30.18709778 -1.7083075 30.18709778 -1.73352051 28.93933105 C-1.47558282 25.16034895 -1.47558282 25.16034895 -3 22 C-3.33 34.21 -3.66 46.42 -4 59 C-25.78 59 -47.56 59 -70 59 C-70 45.14 -70 31.28 -70 17 C-50.2 17 -30.4 17 -10 17 C-10 16.34 -10 15.68 -10 15 C-30.79 15 -51.58 15 -73 15 C-73 30.18 -73 45.36 -73 61 C-73.33 61 -73.66 61 -74 61 C-74.0505916 54.34313186 -74.0856876 47.68631306 -74.10986328 41.02929688 C-74.11993859 38.76332751 -74.13359918 36.49737119 -74.15087891 34.23144531 C-74.17506011 30.97978499 -74.18646763 27.72829613 -74.1953125 24.4765625 C-74.20563507 23.45881744 -74.21595764 22.44107239 -74.22659302 21.39248657 C-74.22674408 20.45166229 -74.22689514 19.51083801 -74.22705078 18.54150391 C-74.231492 17.71099518 -74.23593323 16.88048645 -74.24050903 16.02481079 C-74 14 -74 14 -72 12 C-69.53981018 11.72825623 -69.53981018 11.72825623 -66.40454102 11.69702148 C-65.23315079 11.68037949 -64.06176056 11.66373749 -62.85487366 11.64659119 C-60.94864479 11.63396996 -60.94864479 11.63396996 -59.00390625 11.62109375 C-57.01849969 11.59513162 -55.03309318 11.5691648 -53.04769039 11.5429163 C-50.26096917 11.5084662 -47.47419304 11.48292333 -44.68737793 11.45739746 C-39.81483653 11.41177074 -34.94241499 11.35646494 -30.0700531 11.29469299 C-27.47478588 11.26269012 -24.87944957 11.23581446 -22.28407288 11.21446228 C-21.10953049 11.20097244 -19.9349881 11.1874826 -18.72485352 11.17358398 C-17.6894191 11.16407211 -16.65398468 11.15456024 -15.58717346 11.14476013 C-12.8834847 11.10712553 -12.8834847 11.10712553 -10 10 C-9.67 7.36 -9.34 4.72 -9 2 C-6.03 2.33 -3.06 2.66 0 3 C0 2.01 0 1.02 0 0 Z M-69 18 C-69 31.2 -69 44.4 -69 58 C-47.88 58 -26.76 58 -5 58 C-5 45.46 -5 32.92 -5 20 C-6.32 19.34 -7.64 18.68 -9 18 C-9 18.66 -9 19.32 -9 20 C-8.34 20 -7.68 20 -7 20 C-7 23.63 -7 27.26 -7 31 C-26.8 31 -46.6 31 -67 31 C-67 27.37 -67 23.74 -67 20 C-48.52 20 -30.04 20 -11 20 C-11 19.34 -11 18.68 -11 18 C-30.14 18 -49.28 18 -69 18 Z " fill="#8A5976" transform="translate(153,211)"/>
<path d="M0 0 C0.6909375 -0.020625 1.381875 -0.04125 2.09375 -0.0625 C8.41209954 -0.11000639 12.99821367 1.36478354 17.9375 5.5 C24.55941228 13.37470649 24.25 15.8211399 24.25 27.25 C7.915 27.745 7.915 27.745 -8.75 28.25 C-6.08360087 33.20882049 -6.08360087 33.20882049 -1.75 35.25 C3.09043894 36.00686863 6.41918775 35.73338167 10.6875 33.25 C11.533125 32.59 12.37875 31.93 13.25 31.25 C15.25 31.25 15.25 31.25 16.79296875 32.67578125 C17.33566406 33.29839844 17.87835938 33.92101562 18.4375 34.5625 C19.26314453 35.48482422 19.26314453 35.48482422 20.10546875 36.42578125 C20.48316406 37.02777344 20.86085938 37.62976563 21.25 38.25 C20.25 41.25 20.25 41.25 18.5078125 42.3828125 C17.45207031 42.87394531 17.45207031 42.87394531 16.375 43.375 C15.67632812 43.70757812 14.97765625 44.04015625 14.2578125 44.3828125 C6.68926201 47.65171952 -1.94528491 47.18449772 -9.6875 44.625 C-15.82663733 42.06926015 -19.83183932 38.77351525 -22.625 32.6875 C-24.65618737 26.26156177 -25.25730436 18.88997968 -22.6484375 12.58984375 C-17.13915391 3.76615158 -10.3145972 0.07528903 0 0 Z " fill="#F2738A" transform="translate(365.75,233.75)"/>
<path d="M0 0 C0.70769531 -0.01224609 1.41539062 -0.02449219 2.14453125 -0.03710938 C9.03077137 -0.05634468 12.75062924 1.50767572 17.8125 6.0625 C18.57949219 6.74054688 19.34648437 7.41859375 20.13671875 8.1171875 C25.96312897 14.18398007 24.125 17.78171887 24.125 27.1875 C12.905 27.1875 1.685 27.1875 -9.875 27.1875 C-6.66359551 32.77268847 -6.66359551 32.77268847 -1.875 35.1875 C0.35027536 35.46425932 0.35027536 35.46425932 2.625 35.375 C3.75421875 35.36533203 3.75421875 35.36533203 4.90625 35.35546875 C7.1443413 35.18603578 9.01496067 34.96088306 11.125 34.1875 C11.785 33.1975 12.445 32.2075 13.125 31.1875 C16.47998935 32.57577146 18.27550455 34.04335774 20.125 37.1875 C20.125 38.5075 20.125 39.8275 20.125 41.1875 C12.26746747 46.25687582 5.37499071 47.308711 -3.875 46.1875 C-9.22853976 44.95860443 -13.49797654 43.59894905 -17.375 39.625 C-17.87 38.820625 -18.365 38.01625 -18.875 37.1875 C-19.41125 36.713125 -19.9475 36.23875 -20.5 35.75 C-23.82525302 31.97130338 -24.20194878 27.22210472 -24.0703125 22.3515625 C-23.72916151 18.57160954 -23.14585165 14.77255681 -21.875 11.1875 C-21.215 10.8575 -20.555 10.5275 -19.875 10.1875 C-19.4625 9.424375 -19.05 8.66125 -18.625 7.875 C-14.09122847 0.91242229 -7.69423395 0.00693174 0 0 Z " fill="#F3738A" transform="translate(311.875,233.8125)"/>
<path d="M0 0 C4.62 0 9.24 0 14 0 C14 3.63 14 7.26 14 11 C17.63 11 21.26 11 25 11 C25 14.63 25 18.26 25 22 C21.37 22 17.74 22 14 22 C14.14011038 25.81279106 14.28680438 29.62512562 14.4375 33.4375 C14.47681641 34.52611328 14.51613281 35.61472656 14.55664062 36.73632812 C14.59853516 37.77080078 14.64042969 38.80527344 14.68359375 39.87109375 C14.72025146 40.82943115 14.75690918 41.78776855 14.79467773 42.77514648 C14.75834424 44.97138925 14.75834424 44.97138925 16 46 C17.51928038 46.07179964 19.04167482 46.08392007 20.5625 46.0625 C21.38878906 46.05347656 22.21507812 46.04445313 23.06640625 46.03515625 C23.70449219 46.02355469 24.34257812 46.01195312 25 46 C26.74565111 49.21639654 27.204437 51.32013404 27 55 C22.57625944 56.7214556 19.16638009 57.22115179 14.4375 56.875 C12.79587891 56.77832031 12.79587891 56.77832031 11.12109375 56.6796875 C6.33249175 55.63686304 4.0369597 53.42610076 1.19921875 49.5234375 C-0.59986649 44.23752581 -0.31471128 39.16358329 -0.1875 33.625 C-0.17396484 32.50738281 -0.16042969 31.38976562 -0.14648438 30.23828125 C-0.11127164 27.49168789 -0.06202096 24.74609711 0 22 C-2.31 22 -4.62 22 -7 22 C-7 18.7 -7 15.4 -7 12 C-4.69 12 -2.38 12 0 12 C0 8.04 0 4.08 0 0 Z " fill="#F17389" transform="translate(401,223)"/>
<path d="M0 0 C20.46 0 40.92 0 62 0 C61.67 0.99 61.34 1.98 61 3 C61.66 3 62.32 3 63 3 C63 6.63 63 10.26 63 14 C43.2 14 23.4 14 3 14 C3 10.37 3 6.74 3 3 C21.48 3 39.96 3 59 3 C59 2.34 59 1.68 59 1 C39.86 1 20.72 1 1 1 C1 14.2 1 27.4 1 41 C22.12 41 43.24 41 65 41 C65 28.46 65 15.92 65 3 C65.33 3 65.66 3 66 3 C66 15.87 66 28.74 66 42 C44.22 42 22.44 42 0 42 C0 28.14 0 14.28 0 0 Z " fill="#AA617C" transform="translate(83,228)"/>
<path d="M0 0 C20.79 0 41.58 0 63 0 C63 0.66 63 1.32 63 2 C43.2 2 23.4 2 3 2 C3 15.86 3 29.72 3 44 C24.78 44 46.56 44 69 44 C69 31.46 69 18.92 69 6 C69.99 6.66 70.98 7.32 72 8 C72.26642348 10.90640324 72.34798967 13.60311231 72.29296875 16.5078125 C72.28994751 17.25281006 72.28692627 17.99780762 72.28381348 18.76538086 C72.26810071 21.55206121 72.22621664 24.33854431 72.1875 27.125 C72.125625 33.35375 72.06375 39.5825 72 46 C58.8 46.33 45.6 46.66 32 47 C32 48.65 32 50.3 32 52 C32.33 51.01 32.66 50.02 33 49 C34.98 49 36.96 49 39 49 C39.66 51.97 40.32 54.94 41 58 C37.04 58 33.08 58 29 58 C29.33 55.36 29.66 52.72 30 50 C15.15 49.505 15.15 49.505 0 49 C-0.96555925 46.10332226 -1.09561506 44.43327739 -1.02172852 41.43676758 C-1.00130493 40.50320435 -0.98088135 39.56964111 -0.95983887 38.60778809 C-0.9331311 37.62991333 -0.90642334 36.65203857 -0.87890625 35.64453125 C-0.85824097 34.74327515 -0.83757568 33.84201904 -0.81628418 32.91345215 C-0.73751192 29.54632685 -0.6494466 26.17942414 -0.5625 22.8125 C-0.376875 15.284375 -0.19125 7.75625 0 0 Z " fill="#48496A" transform="translate(80,226)"/>
<path d="M0 0 C4.96622349 -0.02465098 9.93241166 -0.04283649 14.89868164 -0.05493164 C16.58944316 -0.0599719 18.28020029 -0.06680405 19.97094727 -0.07543945 C22.39600707 -0.08751857 24.82100944 -0.09323123 27.24609375 -0.09765625 C28.38672523 -0.10539818 28.38672523 -0.10539818 29.55039978 -0.11329651 C31.3673257 -0.11349238 33.18413127 -0.06197277 35 0 C36 1 36 1 36.1328125 3.46875 C36.13023437 4.4690625 36.12765625 5.469375 36.125 6.5 C36.12886719 8.00046875 36.12886719 8.00046875 36.1328125 9.53125 C36 12 36 12 35 13 C32.49075847 13.10087212 30.00963616 13.13972032 27.5 13.1328125 C26.74912109 13.13376923 25.99824219 13.13472595 25.22460938 13.13571167 C23.63411373 13.13639338 22.04361533 13.13453972 20.453125 13.13037109 C18.01035345 13.12502267 15.56776579 13.13031634 13.125 13.13671875 C11.58333293 13.13605797 10.04166597 13.1347768 8.5 13.1328125 C7.76458984 13.13483673 7.02917969 13.13686096 6.27148438 13.13894653 C1.11495161 13.11495161 1.11495161 13.11495161 0 12 C-0.07244053 9.98035801 -0.08377188 7.95832876 -0.0625 5.9375 C-0.05347656 4.83277344 -0.04445312 3.72804688 -0.03515625 2.58984375 C-0.02355469 1.73519531 -0.01195312 0.88054687 0 0 Z " fill="#6E5271" transform="translate(133,277)"/>
<path d="M0 0 C18.48 0 36.96 0 56 0 C56 2.31 56 4.62 56 7 C37.52 7 19.04 7 0 7 C0 4.69 0 2.38 0 0 Z " fill="#324366" transform="translate(88,233)"/>
<path d="M0 0 C6.27 0 12.54 0 19 0 C19 3.96 19 7.92 19 12 C12.73 12 6.46 12 0 12 C0 8.04 0 4.08 0 0 Z " fill="#925B78" transform="translate(86,243)"/>
<path d="M0 0 C2.97922593 -0.02683987 5.95821295 -0.04676037 8.9375 -0.0625 C9.78763672 -0.07087891 10.63777344 -0.07925781 11.51367188 -0.08789062 C12.32255859 -0.09111328 13.13144531 -0.09433594 13.96484375 -0.09765625 C14.7137085 -0.10289307 15.46257324 -0.10812988 16.23413086 -0.11352539 C18 0 18 0 19 1 C19.09823937 2.66429051 19.12973631 4.33281931 19.125 6 C19.12886719 7.36125 19.12886719 7.36125 19.1328125 8.75 C19 11 19 11 18 12 C16.65732587 12.08631874 15.31025678 12.10706473 13.96484375 12.09765625 C13.15595703 12.09443359 12.34707031 12.09121094 11.51367188 12.08789062 C10.66353516 12.07951172 9.81339844 12.07113281 8.9375 12.0625 C8.08349609 12.05798828 7.22949219 12.05347656 6.34960938 12.04882812 C4.23304337 12.03700373 2.11651315 12.01906769 0 12 C0 8.04 0 4.08 0 0 Z " fill="#3D4668" transform="translate(107,243)"/>
<path d="M0 0 C0.33 0 0.66 0 1 0 C1 3.96 1 7.92 1 12 C21.13 12 41.26 12 62 12 C61.67 12.66 61.34 13.32 61 14 C54.73 13.67 48.46 13.34 42 13 C42.495 18.445 42.495 18.445 43 24 C49.27 24.33 55.54 24.66 62 25 C62 25.33 62 25.66 62 26 C41.57725021 26.88759561 21.42449848 26.99370689 1 26 C1 29.96 1 33.92 1 38 C0.67 38 0.34 38 0 38 C0 25.46 0 12.92 0 0 Z M1 13 C1 16.96 1 20.92 1 25 C7.27 25 13.54 25 20 25 C20 21.04 20 17.08 20 13 C13.73 13 7.46 13 1 13 Z M22 13 C22 16.96 22 20.92 22 25 C24.97922593 25.02683987 27.95821295 25.04676037 30.9375 25.0625 C31.78763672 25.07087891 32.63777344 25.07925781 33.51367188 25.08789062 C34.32255859 25.09111328 35.13144531 25.09433594 35.96484375 25.09765625 C36.7137085 25.10289307 37.46257324 25.10812988 38.23413086 25.11352539 C40.02667739 25.19341752 40.02667739 25.19341752 41 24 C41.09823937 22.33570949 41.12973631 20.66718069 41.125 19 C41.12757812 18.0925 41.13015625 17.185 41.1328125 16.25 C41.25173779 14.03033389 41.25173779 14.03033389 40 13 C38.65732587 12.91368126 37.31025678 12.89293527 35.96484375 12.90234375 C35.15595703 12.90556641 34.34707031 12.90878906 33.51367188 12.91210938 C32.66353516 12.92048828 31.81339844 12.92886719 30.9375 12.9375 C30.08349609 12.94201172 29.22949219 12.94652344 28.34960938 12.95117188 C26.23304337 12.96299627 24.11651315 12.98093231 22 13 Z " fill="#3A4568" transform="translate(85,230)"/>
<path d="M0 0 C0.33 0 0.66 0 1 0 C1 15.51 1 31.02 1 47 C11.23 47 21.46 47 32 47 C32 48.65 32 50.3 32 52 C32.33 51.01 32.66 50.02 33 49 C34.98 49 36.96 49 39 49 C39.66 51.97 40.32 54.94 41 58 C37.04 58 33.08 58 29 58 C29.33 55.36 29.66 52.72 30 50 C15.15 49.505 15.15 49.505 0 49 C-0.96555925 46.10332226 -1.09561506 44.43327739 -1.02172852 41.43676758 C-0.99158409 40.05567558 -0.99158409 40.05567558 -0.96083069 38.64668274 C-0.93379562 37.65597275 -0.90676056 36.66526276 -0.87890625 35.64453125 C-0.85529526 34.62775803 -0.83168427 33.6109848 -0.80735779 32.56340027 C-0.73072902 29.31295788 -0.64670099 26.0627542 -0.5625 22.8125 C-0.50927855 20.61003776 -0.45653815 18.40756383 -0.40429688 16.20507812 C-0.27511492 10.80323743 -0.13985601 5.40157431 0 0 Z " fill="#7D5674" transform="translate(80,226)"/>
<path d="M0 0 C8.58 0 17.16 0 26 0 C26 2.31 26 4.62 26 7 C17.42 7 8.84 7 0 7 C0 4.69 0 2.38 0 0 Z " fill="#344466" transform="translate(88,258)"/>
<path d="M0 0 C2.72182248 1.3807166 3.89997868 2.63747602 6 5 C6.33 6.65 6.66 8.3 7 10 C-0.26 10 -7.52 10 -15 10 C-14 4 -14 4 -12 1.625 C-7.90011846 -0.59576917 -4.56531034 -0.93071353 0 0 Z " fill="#47486A" transform="translate(317,243)"/>
<path d="M0 0 C3.5625 0.5 3.5625 0.5 6 2.0625 C8.16646028 5.44217804 8.12538002 7.55983987 7.5625 11.5 C5.9375 13.9375 5.9375 13.9375 3.5625 15.5 C0.25126368 15.98288863 -1.734049 15.79618989 -4.8125 14.5 C-6.92783646 11.89650897 -6.94387777 9.73126965 -6.75 6.44140625 C-6.00622485 1.82070314 -4.58239593 0.66653032 0 0 Z " fill="#3D4668" transform="translate(151.4375,214.5)"/>
<path d="M0 0 C8.25 0 16.5 0 25 0 C25 2.31 25 4.62 25 7 C16.75 7 8.5 7 0 7 C0 4.69 0 2.38 0 0 Z " fill="#324366" transform="translate(119,258)"/>
<path d="M0 0 C3.62671459 0.85697415 6.64705129 2.6481689 9.06640625 5.48828125 C9.39640625 7.13828125 9.72640625 8.78828125 10.06640625 10.48828125 C2.80640625 10.48828125 -4.45359375 10.48828125 -11.93359375 10.48828125 C-10.52892208 3.46492292 -7.7159573 -0.51244498 0 0 Z " fill="#46486A" transform="translate(367.93359375,242.51171875)"/>
<path d="M0 0 C9.57 0 19.14 0 29 0 C29 3.63 29 7.26 29 11 C27.19720809 12.80279191 24.45952299 12.13036605 22.03125 12.1328125 C20.82082031 12.13410156 19.61039063 12.13539063 18.36328125 12.13671875 C17.08839844 12.13285156 15.81351563 12.12898438 14.5 12.125 C13.22511719 12.12886719 11.95023438 12.13273437 10.63671875 12.13671875 C8.82107422 12.13478516 8.82107422 12.13478516 6.96875 12.1328125 C5.84919922 12.13168457 4.72964844 12.13055664 3.57617188 12.12939453 C1 12 1 12 0 11 C0 7.37 0 3.74 0 0 Z M2 2 C2 4.31 2 6.62 2 9 C10.25 9 18.5 9 27 9 C27 6.69 27 4.38 27 2 C18.75 2 10.5 2 2 2 Z " fill="#835775" transform="translate(117,256)"/>
<path d="M0 0 C9.57 0 19.14 0 29 0 C29 3.63 29 7.26 29 11 C19.43 11 9.86 11 0 11 C0 7.37 0 3.74 0 0 Z M2 2 C2 4.31 2 6.62 2 9 C10.58 9 19.16 9 28 9 C28 6.69 28 4.38 28 2 C19.42 2 10.84 2 2 2 Z " fill="#8A5977" transform="translate(86,256)"/>
<path d="M0 0 C4.82380802 -0.0246519 9.64757967 -0.04283693 14.47143555 -0.05493164 C16.11369464 -0.05997174 17.75594923 -0.06680378 19.39819336 -0.07543945 C21.75375479 -0.08751926 24.10925709 -0.09323139 26.46484375 -0.09765625 C27.20339096 -0.10281754 27.94193817 -0.10797882 28.7028656 -0.11329651 C30.46898088 -0.1134925 32.23497146 -0.06194719 34 0 C35 1 35 1 35.1328125 3.46875 C35.13023437 4.4690625 35.12765625 5.469375 35.125 6.5 C35.12886719 8.00046875 35.12886719 8.00046875 35.1328125 9.53125 C35 12 35 12 34 13 C31.47905924 13.08847743 28.98569107 13.11527301 26.46484375 13.09765625 C25.33496788 13.09553383 25.33496788 13.09553383 24.18226624 13.09336853 C21.7673044 13.08775376 19.35243399 13.07519883 16.9375 13.0625 C15.30403779 13.0574869 13.67057414 13.05292366 12.03710938 13.04882812 C8.02470415 13.03777954 4.01236759 13.02050506 0 13 C0 12.34 0 11.68 0 11 C4.95 11 9.9 11 15 11 C15.33 10.01 15.66 9.02 16 8 C16 8.99 16 9.98 16 11 C21.61 11 27.22 11 33 11 C33 7.7 33 4.4 33 1 C22.11 1 11.22 1 0 1 C0 0.67 0 0.34 0 0 Z " fill="#AE627D" transform="translate(134,277)"/>
<path d="M0 0 C4.95 0 9.9 0 15 0 C15 2.64 15 5.28 15 8 C10.05 8 5.1 8 0 8 C0 5.36 0 2.72 0 0 Z " fill="#3A4567" transform="translate(129,245)"/>
<path d="M0 0 C6.27 0 12.54 0 19 0 C19 3.96 19 7.92 19 12 C16.02077407 12.02683987 13.04178705 12.04676037 10.0625 12.0625 C8.78729492 12.07506836 8.78729492 12.07506836 7.48632812 12.08789062 C6.67744141 12.09111328 5.86855469 12.09433594 5.03515625 12.09765625 C4.2862915 12.10289307 3.53742676 12.10812988 2.76586914 12.11352539 C1 12 1 12 0 11 C-0.14310287 7.3308423 -0.04221662 3.67284559 0 0 Z M2 2 C2 4.64 2 7.28 2 10 C6.95 10 11.9 10 17 10 C17 7.36 17 4.72 17 2 C12.05 2 7.1 2 2 2 Z " fill="#9F5E7A" transform="translate(127,243)"/>
<path d="M0 0 C4.95 0 9.9 0 15 0 C15 2.31 15 4.62 15 7 C10.05 7 5.1 7 0 7 C0 4.69 0 2.38 0 0 Z " fill="#334366" transform="translate(88,246)"/>
<path d="M0 0 C5.28 0 10.56 0 16 0 C15.34 2.64 14.68 5.28 14 8 C12.68 6.68 11.36 5.36 10 4 C10.66 3.01 11.32 2.02 12 1 C10.68 1.99 9.36 2.98 8 4 C8.66 5.32 9.32 6.64 10 8 C6.7 8 3.4 8 0 8 C0 5.36 0 2.72 0 0 Z " fill="#354467" transform="translate(135,279)"/>
<path d="M0 0 C2.97922593 -0.02683987 5.95821295 -0.04676037 8.9375 -0.0625 C9.78763672 -0.07087891 10.63777344 -0.07925781 11.51367188 -0.08789062 C12.32255859 -0.09111328 13.13144531 -0.09433594 13.96484375 -0.09765625 C14.7137085 -0.10289307 15.46257324 -0.10812988 16.23413086 -0.11352539 C18 0 18 0 19 1 C19.09823937 2.66429051 19.12973631 4.33281931 19.125 6 C19.12886719 7.36125 19.12886719 7.36125 19.1328125 8.75 C19 11 19 11 18 12 C16.65732587 12.08631874 15.31025678 12.10706473 13.96484375 12.09765625 C13.15595703 12.09443359 12.34707031 12.09121094 11.51367188 12.08789062 C10.66353516 12.07951172 9.81339844 12.07113281 8.9375 12.0625 C8.08349609 12.05798828 7.22949219 12.05347656 6.34960938 12.04882812 C4.23304337 12.03700373 2.11651315 12.01906769 0 12 C0 8.04 0 4.08 0 0 Z M1 3 C1 5.31 1 7.62 1 10 C6.28 10 11.56 10 17 10 C17 7.36 17 4.72 17 2 C14.52076199 1.97314905 12.0418116 1.95323453 9.5625 1.9375 C8.85544922 1.92912109 8.14839844 1.92074219 7.41992188 1.91210938 C3.91996371 1.56702695 3.91996371 1.56702695 1 3 Z " fill="#975C79" transform="translate(107,243)"/>
<path d="M0 0 C4.29 0 8.58 0 13 0 C13 2.64 13 5.28 13 8 C10.03 8 7.06 8 4 8 C4.66 6.68 5.32 5.36 6 4 C5.01 3.67 4.02 3.34 3 3 C3.33 3.66 3.66 4.32 4 5 C3.01 5.99 2.02 6.98 1 8 C0.01 7.67 -0.98 7.34 -2 7 C-1.34 4.69 -0.68 2.38 0 0 Z " fill="#364467" transform="translate(153,279)"/>
<path d="M0 0 C1.98 0 3.96 0 6 0 C6.66 2.97 7.32 5.94 8 9 C4.7 9 1.4 9 -2 9 C-1.34 6.03 -0.68 3.06 0 0 Z " fill="#364467" transform="translate(113,275)"/>
<path d="M0 0 C6.93 0 13.86 0 21 0 C21 0.99 21 1.98 21 3 C13.74 3 6.48 3 -1 3 C-0.67 2.01 -0.34 1.02 0 0 Z " fill="#49496A" transform="translate(106,285)"/>
<path d="M0 0 C1.93719378 -0.05406122 3.87481921 -0.09282025 5.8125 -0.125 C6.89144531 -0.14820313 7.97039062 -0.17140625 9.08203125 -0.1953125 C12 0 12 0 15 2 C15 2.99 15 3.98 15 5 C10.38 5 5.76 5 1 5 C0.67 3.35 0.34 1.7 0 0 Z " fill="#675070" transform="translate(85,214)"/>
<path d="M0 0 C2.97 0 5.94 0 9 0 C9.33 3.63 9.66 7.26 10 11 C11.65 11 13.3 11 15 11 C15 11.33 15 11.66 15 12 C8.07 12 1.14 12 -6 12 C-6 11.67 -6 11.34 -6 11 C-1.05 11 3.9 11 9 11 C8.34 8.03 7.68 5.06 7 2 C5.02 2 3.04 2 1 2 C0.67 3.98 0.34 5.96 0 8 C-1.08174162 4.63458162 -0.92538169 3.70152678 0 0 Z " fill="#BA657F" transform="translate(112,273)"/>
<path d="M0 0 C4.95 0 9.9 0 15 0 C15 1.32 15 2.64 15 4 C11.37 4 7.74 4 4 4 C4 3.34 4 2.68 4 2 C2.68 2 1.36 2 0 2 C0 1.34 0 0.68 0 0 Z " fill="#895976" transform="translate(157,238)"/>
<path d="M0 0 C2.625 0.375 2.625 0.375 5 1 C5.625 2.8125 5.625 2.8125 6 5 C5.01 6.485 5.01 6.485 4 8 C2.35 7.67 0.7 7.34 -1 7 C-1.625 4.625 -1.625 4.625 -2 2 C-1.34 1.34 -0.68 0.68 0 0 Z " fill="#3E4668" transform="translate(150,219)"/>
<path d="M0 0 C0.66 0 1.32 0 2 0 C2 11.22 2 22.44 2 34 C1.67 34 1.34 34 1 34 C0.67 24.43 0.34 14.86 0 5 C-0.66 5 -1.32 5 -2 5 C-1.34 3.35 -0.68 1.7 0 0 Z " fill="#5F4E6E" transform="translate(263,246)"/>
<path d="M0 0 C6.27 0 12.54 0 19 0 C17 2 17 2 13.5234375 2.1953125 C12.14049032 2.18201493 10.75761346 2.15816232 9.375 2.125 C8.66859375 2.11597656 7.9621875 2.10695312 7.234375 2.09765625 C5.48943902 2.07407603 3.74467705 2.03820461 2 2 C2 4.64 2 7.28 2 10 C1.67 10 1.34 10 1 10 C0.67 6.7 0.34 3.4 0 0 Z " fill="#865876" transform="translate(127,243)"/>
<path d="M0 0 C2.83181098 -0.43566323 4.36063578 -0.39684676 6.8125 1.125 C8.52849028 3.83445834 8.333728 5.86295684 8 9 C6 11 6 11 3 11.25 C0 11 0 11 -2 9 C-2.34490322 4.94738713 -2.30163882 3.45245824 0 0 Z M1 2 C0.34 2.66 -0.32 3.32 -1 4 C-0.67958603 6.60280568 -0.67958603 6.60280568 0 9 C1.65 9.33 3.3 9.66 5 10 C7.30671915 7.28450846 7.30671915 7.28450846 6.625 4.8125 C6.41875 4.214375 6.2125 3.61625 6 3 C3.60280568 2.32041397 3.60280568 2.32041397 1 2 Z " fill="#A4607B" transform="translate(149,217)"/>
<path d="M0 0 C0.99 0 1.98 0 3 0 C3 4.62 3 9.24 3 14 C2.01 14 1.02 14 0 14 C0 9.38 0 4.76 0 0 Z " fill="#745372" transform="translate(162,258)"/>
<path d="M0 0 C0.33 0.99 0.66 1.98 1 3 C3.64 3.33 6.28 3.66 9 4 C8.835 4.5775 8.67 5.155 8.5 5.75 C7.85537969 8.26664369 7.85537969 8.26664369 8 12 C8.66 12 9.32 12 10 12 C10 12.66 10 13.32 10 14 C9.01 14 8.02 14 7 14 C6.319375 12.329375 6.319375 12.329375 5.625 10.625 C4.27534014 7.03800992 4.27534014 7.03800992 2 5 C-0.32275177 4.59952556 -2.65739357 4.2602896 -5 4 C-5 3.67 -5 3.34 -5 3 C-3.35 3 -1.7 3 0 3 C0 2.01 0 1.02 0 0 Z " fill="#AF627D" transform="translate(153,211)"/>
<path d="M0 0 C6.25925926 -0.48148148 6.25925926 -0.48148148 9.5 1.625 C11 4 11 4 10.75 7.25 C10.5025 8.1575 10.255 9.065 10 10 C9.67 10 9.34 10 9 10 C8.5359375 8.5459375 8.5359375 8.5459375 8.0625 7.0625 C7.30476658 4.15934208 7.30476658 4.15934208 6 3 C3.67182036 2.63239269 1.3381615 2.29758419 -1 2 C-0.67 1.34 -0.34 0.68 0 0 Z " fill="#524B6C" transform="translate(148,215)"/>
<path d="M0 0 C1.98 0 3.96 0 6 0 C6 1.65 6 3.3 6 5 C4.02 5.33 2.04 5.66 0 6 C0 4.02 0 2.04 0 0 Z " fill="#735372" transform="translate(165,215)"/>
<path d="M0 0 C1.77049689 -0.05410687 3.54146849 -0.09284119 5.3125 -0.125 C6.29863281 -0.14820313 7.28476563 -0.17140625 8.30078125 -0.1953125 C11 0 11 0 14 2 C14 2.66 14 3.32 14 4 C11.36 4 8.72 4 6 4 C6 3.01 6 2.02 6 1 C4.02 1 2.04 1 0 1 C0 0.67 0 0.34 0 0 Z " fill="#A15F7A" transform="translate(86,214)"/>
<path d="M0 0 C2.475 0.495 2.475 0.495 5 1 C4.67 2.32 4.34 3.64 4 5 C2.68 4.67 1.36 4.34 0 4 C0 2.68 0 1.36 0 0 Z " fill="#955C79" transform="translate(107,217)"/>
<path d="M0 0 C2 0 4 0 6 0 C6 1.98 6 3.96 6 6 C4.35 5.67 2.7 5.34 1 5 C0.67 3.35 0.34 1.7 0 0 Z " fill="#7F5674" transform="translate(127,214)"/>
<path d="M0 0 C1.32 0 2.64 0 4 0 C4 1.32 4 2.64 4 4 C2.35 3.67 0.7 3.34 -1 3 C-0.67 2.01 -0.34 1.02 0 0 Z " fill="#965C79" transform="translate(156,249)"/>
</svg>
